<?xml version="1.0" encoding="utf-8"?>
<!-- Generator: Adobe Illustrator 21.0.0, SVG Export Plug-In . SVG Version: 6.00 Build 0)  -->
<svg version="1.1" id="Layer_1" xmlns="http://www.w3.org/2000/svg" xmlns:xlink="http://www.w3.org/1999/xlink" x="0px" y="0px"
	 viewBox="0 0 625.5 219.3" style="enable-background:new 0 0 625.5 219.3;" xml:space="preserve">
<style type="text/css">
	.st0{fill:#967F64;}
	.st1{fill:#FFFFFF;}
	.st2{fill:none;}
</style>
<path class="st1" d="M72.5,47.7c-0.8,5.3-2.5,10.1-5.2,14.4c-2.7,4.3-6,8-10,10.9c-4,2.9-8.4,5-13.3,6.3c-4.9,1.3-10,1.5-15.3,0.7
	v20.4H0.5V3.2h28.2c6.8,0,13.1,1,18.9,3c5.8,2,10.7,4.9,14.7,8.7c4,3.8,7,8.5,8.9,14C73.1,34.5,73.6,40.7,72.5,47.7z M44.3,41.8
	c0-2.6-0.9-4.8-2.7-6.6c-1.8-1.8-4-2.7-6.6-2.7h-6.4v18.6h6.4c2.6,0,4.8-0.9,6.6-2.7C43.4,46.6,44.3,44.4,44.3,41.8z"/>
<path class="st1" d="M143.9,72.2v28.2H76.5V3.2h67.4v28.2h-39.3v8.7h32.8v23.6h-32.8v8.6H143.9z"/>
<path class="st1" d="M221.7,3.2v97.2h-26.8l-19.2-35.1v35.1h-26.1V3.2h26.7l16.9,38.2V3.2H221.7z"/>
<path class="st1" d="M293.1,3.2v28.2h-19.3v69h-28.2v-69h-19.4V3.2H293.1z"/>
<path class="st1" d="M367.8,3.2l-33,69H360v28.2h-69.8l32.8-69h-25.2V3.2H367.8z"/>
<path class="st1" d="M440,72.2v28.2h-67.4V3.2H440v28.2h-39.3v8.7h32.8v23.6h-32.8v8.6H440z"/>
<path class="st1" d="M484.7,3.5c5.3,0.9,10.1,2.7,14.4,5.4c4.3,2.7,8,6.1,10.9,10.1c2.9,4,5,8.5,6.3,13.4c1.3,4.9,1.5,10,0.7,15.3
	c-0.8,5.5-2.6,10.5-5.5,14.9c-2.9,4.4-6.4,8.1-10.7,11.1c1,1.1,2.2,2.3,3.7,3.6c1.5,1.3,3.5,2.5,5.9,3.6c2.3,1,4.8,1.1,7.4,0.3
	c2.6-0.8,4.9-2.1,6.9-4l19.7,19.6c-2.1,2.1-4.4,3.9-6.8,5.2c-2.4,1.3-4.9,2.3-7.4,3c-2.5,0.7-5.1,1.2-7.7,1.4
	c-2.6,0.2-5.1,0.3-7.6,0.3c-3.4,0-6.6-0.4-9.6-1.1c-3-0.7-5.7-1.7-7.9-2.9c-3.2-1.9-6-3.8-8.4-5.8c-2.4-2-4.5-4-6.3-6
	c-1.8-2-3.5-3.9-5-5.8c-1.5-1.9-3-3.6-4.4-5.1v20.4H445V3.2h28c1.5,0,3.5,0,5.8,0C481.2,3.2,483.2,3.3,484.7,3.5z M488.8,41.8
	c0-2.6-0.9-4.8-2.7-6.6c-1.8-1.8-3.9-2.7-6.5-2.7h-6.5v18.6h6.5c2.6,0,4.7-0.9,6.5-2.7C488,46.6,488.8,44.4,488.8,41.8z"/>
<circle class="st1" cx="573.9" cy="51.2" r="51.2"/>
<rect x="0.5" y="112.3" class="st0" width="624.5" height="106.7"/>
<g>
	<path class="st1" d="M77.4,160.5v31.4l-14.2-0.1v-1.5c-2.3,0.9-4.6,1.4-7,1.7c-2.4,0.3-4.8,0.2-7.2-0.2s-4.7-1.1-6.9-2.1
		c-2.2-1-4.3-2.4-6.2-4.1c-2.7-2.4-4.8-5.2-6.3-8.4c-1.5-3.2-2.3-6.5-2.6-9.9c-0.2-3.4,0.2-6.7,1.3-10.1c1.1-3.3,2.9-6.4,5.3-9.1
		c2.3-2.6,5.1-4.6,8.5-6.1c3.3-1.5,6.8-2.4,10.5-2.7c3.7-0.3,7.3-0.1,10.9,0.8c3.6,0.9,6.7,2.4,9.5,4.5l-9.9,11.1
		c-1.7-1.1-3.5-1.7-5.4-2c-1.9-0.3-3.6-0.2-5.3,0.1c-1.7,0.3-3.2,0.8-4.6,1.6c-1.4,0.7-2.4,1.6-3.1,2.6c-0.9,1.3-1.6,2.7-2.1,4.2
		c-0.5,1.5-0.7,3-0.6,4.5c0,1.5,0.4,2.9,1,4.3c0.6,1.4,1.5,2.6,2.8,3.6c1.2,1.1,2.5,1.9,4,2.4c1.5,0.5,3,0.7,4.5,0.5
		c1.5-0.1,3-0.5,4.4-1.2s2.7-1.6,3.8-2.8l0.3-0.4H56l2.7-12.6L77.4,160.5z"/>
	<path class="st1" d="M162.2,139.5l16.1,52.2h-15.1l-1.7-6.2h-15.8l-1.6,6.2h-15.1l16.1-52.2H162.2z M156.7,170.9l-3-12l-3,12H156.7
		z"/>
	<path class="st1" d="M254.1,176.6v15.1H228v-52.2h15.1v37.1H254.1z"/>
	<path class="st1" d="M332.1,176.6v15.1h-26.1v-52.2h15.1v37.1H332.1z"/>
	<path class="st1" d="M420.3,176.6v15.1h-36.2v-52.2h36.2v15.1h-21.1v4.7h17.6V172h-17.6v4.6H420.3z"/>
	<path class="st1" d="M516,191.7h-16.3c-2.2-3.2-3.9-5.7-5.4-7.6c-1.4-1.9-2.6-3.3-3.5-4.3c-0.9-1-1.5-1.5-2-1.7
		c-0.4-0.2-0.7-0.2-0.9,0.1c-0.2,0.2-0.3,0.6-0.3,1.1c0,0.5,0,0.9,0,1.2v11.2h-15.1v-52.2h19.8c2.3,0,4.6,0.6,6.8,1.7
		c2.2,1.1,4.2,2.5,5.8,4.2c1.9,1.9,3.3,4.1,4.3,6.6c0.9,2.4,1.4,4.9,1.3,7.5c0,2.5-0.6,5.1-1.6,7.5c-1,2.5-2.5,4.7-4.4,6.7
		L516,191.7z M496.1,158.7c0-1.4-0.5-2.6-1.4-3.5c-1-1-2.1-1.4-3.5-1.4h-3.5v10h3.5c1.4,0,2.6-0.5,3.5-1.5
		C495.6,161.3,496.1,160.1,496.1,158.7z"/>
	<path class="st1" d="M598.6,139.5l-14,28.9v23.3h-15.7v-23.5l-13.7-28.7h15.8l5.8,13.5l5.7-13.5H598.6z"/>
</g>
<path class="st2" d="M551.4,62.9h3.9v-0.1H551C551.1,62.9,551.2,62.9,551.4,62.9z"/>
<g>
	<path d="M560,37.3c-0.2,0.2-0.3,0.5-0.3,0.8v38c0,0.3,0.1,0.6,0.3,0.8c0.2,0.2,0.5,0.3,0.8,0.3h38c0.3,0,0.6-0.1,0.8-0.3
		c0.2-0.2,0.3-0.5,0.3-0.8v-38c0-0.3-0.1-0.6-0.3-0.8c-0.2-0.2-0.5-0.3-0.8-0.3h-38C560.5,37,560.3,37.1,560,37.3z"/>
	<path d="M588.1,25.3c-1-1-2.1-1.4-3.4-1.4h-33.2c-1.3,0-2.5,0.5-3.4,1.4c-1,1-1.4,2.1-1.4,3.5v33.2c0,1.3,0.5,2.5,1.4,3.4
		c1,1,2.1,1.4,3.4,1.4h3.9v-1v-2.9v-0.1v-3V38.1c0-1.5,0.5-2.8,1.6-3.9c1.1-1.1,2.4-1.6,3.9-1.6h28.7v-3.8
		C589.5,27.4,589,26.2,588.1,25.3z"/>
</g>
</svg>
