<?xml version="1.0" encoding="utf-8"?>
<!-- Generator: Adobe Illustrator 21.0.0, SVG Export Plug-In . SVG Version: 6.00 Build 0)  -->
<svg version="1.1" id="Layer_1" xmlns="http://www.w3.org/2000/svg" xmlns:xlink="http://www.w3.org/1999/xlink" x="0px" y="0px"
	 viewBox="0 0 625.5 219.3" style="enable-background:new 0 0 625.5 219.3;" xml:space="preserve">
<style type="text/css">
	.st0{fill:#967F64;}
	.st1{fill:#FFFFFF;}
</style>
<path d="M73,47.7c-0.8,5.3-2.5,10.1-5.2,14.4c-2.7,4.3-6,8-10,10.9c-4,2.9-8.4,5-13.3,6.3c-4.9,1.3-10,1.5-15.3,0.7v20.4H1V3.2h28.2
	c6.8,0,13.1,1,18.9,3c5.8,2,10.7,4.9,14.7,8.7c4,3.8,7,8.5,8.9,14C73.6,34.5,74.1,40.7,73,47.7z M44.8,41.8c0-2.6-0.9-4.8-2.7-6.6
	c-1.8-1.8-4-2.7-6.6-2.7h-6.4v18.6h6.4c2.6,0,4.8-0.9,6.6-2.7C43.9,46.6,44.8,44.4,44.8,41.8z"/>
<path d="M144.4,72.2v28.2H77V3.2h67.4v28.2h-39.3v8.7H138v23.6h-32.8v8.6H144.4z"/>
<path d="M222.2,3.2v97.2h-26.8l-19.2-35.1v35.1h-26.1V3.2h26.7l16.9,38.2V3.2H222.2z"/>
<path d="M293.6,3.2v28.2h-19.3v69h-28.2v-69h-19.4V3.2H293.6z"/>
<path d="M368.3,3.2l-33,69h25.2v28.2h-69.8l32.8-69h-25.2V3.2H368.3z"/>
<path d="M440.5,72.2v28.2h-67.4V3.2h67.4v28.2h-39.3v8.7h32.8v23.6h-32.8v8.6H440.5z"/>
<path d="M485.2,3.5c5.3,0.9,10.1,2.7,14.4,5.4c4.3,2.7,8,6.1,10.9,10.1c2.9,4,5,8.5,6.3,13.4c1.3,4.9,1.5,10,0.7,15.3
	c-0.8,5.5-2.6,10.5-5.5,14.9c-2.9,4.4-6.4,8.1-10.7,11.1c1,1.1,2.2,2.3,3.7,3.6c1.5,1.3,3.5,2.5,5.9,3.6c2.3,1,4.8,1.1,7.4,0.3
	c2.6-0.8,4.9-2.1,6.9-4L545,96.8c-2.1,2.1-4.4,3.9-6.8,5.2c-2.4,1.3-4.9,2.3-7.4,3c-2.5,0.7-5.1,1.2-7.7,1.4
	c-2.6,0.2-5.1,0.3-7.6,0.3c-3.4,0-6.6-0.4-9.6-1.1c-3-0.7-5.7-1.7-7.9-2.9c-3.2-1.9-6-3.8-8.4-5.8c-2.4-2-4.5-4-6.3-6
	c-1.8-2-3.5-3.9-5-5.8c-1.5-1.9-3-3.6-4.4-5.1v20.4h-28.2V3.2h28c1.5,0,3.5,0,5.8,0C481.7,3.2,483.7,3.3,485.2,3.5z M489.3,41.8
	c0-2.6-0.9-4.8-2.7-6.6c-1.8-1.8-3.9-2.7-6.5-2.7h-6.5v18.6h6.5c2.6,0,4.7-0.9,6.5-2.7C488.5,46.6,489.3,44.4,489.3,41.8z"/>
<path d="M574.4,0c-28.3,0-51.2,22.9-51.2,51.2c0,28.3,22.9,51.2,51.2,51.2c28.3,0,51.2-22.9,51.2-51.2C625.5,22.9,602.6,0,574.4,0z
	 M598.8,55.2l-17.6,10.2l-17.6,10.2c-3.1,1.8-7-0.4-7-4V51.2V30.8c0-3.6,3.9-5.8,7-4L581.2,37l17.6,10.2
	C601.9,49,601.9,53.4,598.8,55.2z"/>
<rect x="1" y="112.3" class="st0" width="624.5" height="106.7"/>
<g>
	<path class="st1" d="M47.4,140h16.6l-14,51.7H31.5l-14-51.7h16.6l6.6,25.8L47.4,140z"/>
	<path class="st1" d="M157.7,140h22.6v13.5h-3.7v25.3h3.7v13.5h-22.6v-13.5h3.7v-25.3h-3.7V140z"/>
	<path class="st1" d="M290.4,140c3.6,0,7,0.7,10.2,2.1s5.9,3.2,8.3,5.6c2.4,2.4,4.2,5.1,5.6,8.3c1.4,3.1,2.1,6.5,2.1,10.1
		c0,3.6-0.7,7-2.1,10.2c-1.4,3.2-3.2,5.9-5.6,8.3s-5.1,4.2-8.3,5.6c-3.2,1.4-6.6,2.1-10.2,2.1h-15.1V140H290.4z M290.4,177
		c1.5,0,3-0.3,4.4-0.8c1.4-0.6,2.6-1.3,3.6-2.3c1-1,1.8-2.1,2.4-3.5c0.6-1.3,0.9-2.8,0.9-4.3c0-1.5-0.3-3-0.9-4.3
		c-0.6-1.3-1.4-2.5-2.4-3.5c-1-1-2.2-1.8-3.6-2.3c-1.4-0.6-2.8-0.9-4.4-0.9V177z"/>
	<path class="st1" d="M447.3,177.1v15.1h-36.2V140h36.2v15.1h-21.1v4.7h17.6v12.7h-17.6v4.6H447.3z"/>
	<path class="st1" d="M565.9,139c3.7,0,7.3,0.7,10.5,2.1c3.3,1.4,6.2,3.3,8.6,5.8c2.4,2.4,4.4,5.3,5.8,8.6c1.4,3.3,2.1,6.8,2.1,10.5
		c0,3.7-0.7,7.3-2.1,10.5c-1.4,3.3-3.3,6.2-5.8,8.6c-2.4,2.4-5.3,4.4-8.6,5.8c-3.3,1.4-6.8,2.1-10.5,2.1c-3.7,0-7.3-0.7-10.5-2.1
		s-6.2-3.3-8.6-5.8c-2.4-2.4-4.4-5.3-5.8-8.6c-1.4-3.3-2.1-6.8-2.1-10.5c0-3.7,0.7-7.3,2.1-10.5c1.4-3.3,3.3-6.2,5.8-8.6
		c2.4-2.4,5.3-4.4,8.6-5.8C558.6,139.7,562.2,139,565.9,139z M577.5,166c0-1.6-0.3-3.1-0.9-4.5c-0.6-1.4-1.4-2.6-2.4-3.6
		s-2.2-1.8-3.6-2.4c-1.4-0.6-2.9-0.9-4.5-0.9s-3.1,0.3-4.5,0.9c-1.4,0.6-2.6,1.4-3.6,2.4s-1.8,2.2-2.4,3.6c-0.6,1.4-0.9,2.9-0.9,4.5
		s0.3,3.1,0.9,4.5c0.6,1.4,1.4,2.6,2.4,3.6c1,1,2.2,1.8,3.6,2.4c1.4,0.6,2.9,0.9,4.5,0.9s3.1-0.3,4.5-0.9c1.4-0.6,2.6-1.4,3.6-2.4
		c1-1,1.8-2.2,2.4-3.6C577.2,169.1,577.5,167.6,577.5,166z"/>
</g>
</svg>
